<svg width="25" height="25" viewBox="0 0 25 25" fill="none" xmlns="http://www.w3.org/2000/svg">
<path d="M23.7351 12.0618C23.7351 19.1718 21.4051 22.3218 15.2851 22.9418C14.4377 23.0245 13.5866 23.0646 12.7351 23.0618H11.6451C4.43511 22.7718 1.73511 19.7218 1.73511 12.0618C1.73511 4.06177 4.73511 1.06177 12.7351 1.06177C20.7351 1.06177 23.7351 4.06177 23.7351 12.0618Z" fill="url(#paint0_linear_3_642)"/>
<path d="M15.2851 10.5918V12.9218H18.6551L18.1251 16.3418H15.2851V22.9418C14.4376 23.0245 13.5866 23.0646 12.7351 23.0618H11.6451V16.3618H8.56509V12.9218H11.6451V10.3518C11.6144 9.72947 11.7082 9.10728 11.9212 8.52172C12.1341 7.93616 12.4618 7.39901 12.8851 6.94178C14.6251 5.06178 18.7351 6.06178 18.7351 6.06178V8.92178H16.9551C16.5122 8.92178 16.0874 9.09773 15.7742 9.41092C15.461 9.7241 15.2851 10.1489 15.2851 10.5918Z" fill="white"/>
<defs>
<linearGradient id="paint0_linear_3_642" x1="12.7351" y1="23.0618" x2="12.7351" y2="1.06177" gradientUnits="userSpaceOnUse">
<stop stop-color="#0066EF"/>
<stop offset="1" stop-color="#00B2FF"/>
</linearGradient>
</defs>
</svg>
