<svg width="25" height="25" viewBox="0 0 25 25" fill="none" xmlns="http://www.w3.org/2000/svg">
<path d="M1.71777 12.0618C1.71777 4.06177 4.71777 1.06177 12.7178 1.06177C20.7178 1.06177 23.7178 4.06177 23.7178 12.0618C23.7178 20.0618 20.7178 23.0618 12.7178 23.0618C4.71777 23.0618 1.71777 20.0618 1.71777 12.0618Z" fill="url(#paint0_radial_3_937)"/>
<path d="M12.7178 15.4018H12.5378C11.7167 15.3499 10.9428 15.0003 10.361 14.4185C9.77928 13.8368 9.42969 13.0629 9.37778 12.2418C9.35227 11.7882 9.41984 11.3342 9.57634 10.9077C9.73284 10.4812 9.97495 10.0912 10.2878 9.76179C10.6055 9.44132 10.9843 9.18773 11.4016 9.01598C11.819 8.84423 12.2665 8.7578 12.7178 8.76179C13.2645 8.76137 13.8031 8.89519 14.286 9.15149C14.769 9.4078 15.1817 9.77875 15.4878 10.2318C15.8563 10.7712 16.0548 11.4085 16.0578 12.0618C16.0618 12.5131 15.9753 12.9606 15.8036 13.3779C15.6318 13.7953 15.3783 14.174 15.0578 14.4918C14.4258 15.0879 13.5864 15.4143 12.7178 15.4018ZM12.7178 10.0018C12.4433 10.0107 12.1733 10.0743 11.9235 10.1886C11.6738 10.3029 11.4493 10.4658 11.2632 10.6678C11.077 10.8698 10.933 11.1068 10.8393 11.365C10.7457 11.6232 10.7044 11.8975 10.7178 12.1718C10.7443 12.6777 10.9572 13.1559 11.3154 13.5142C11.6736 13.8724 12.1518 14.0853 12.6578 14.1118C12.9321 14.1184 13.205 14.0705 13.4607 13.9707C13.7163 13.8709 13.9495 13.7212 14.1468 13.5305C14.3441 13.3397 14.5015 13.1116 14.6098 12.8595C14.7181 12.6074 14.7752 12.3362 14.7778 12.0618C14.7739 11.6528 14.6524 11.2536 14.4278 10.9118C14.238 10.6328 13.9831 10.4041 13.6852 10.2456C13.3873 10.087 13.0553 10.0034 12.7178 10.0018Z" fill="white"/>
<path d="M17.1378 8.44178C17.1378 8.60001 17.0909 8.75468 17.003 8.88624C16.9151 9.0178 16.7901 9.12034 16.6439 9.18089C16.4977 9.24144 16.3369 9.25728 16.1817 9.22641C16.0265 9.19554 15.884 9.11935 15.7721 9.00747C15.6602 8.89559 15.584 8.75304 15.5532 8.59786C15.5223 8.44267 15.5381 8.28182 15.5987 8.13564C15.6592 7.98946 15.7618 7.86451 15.8933 7.77661C16.0249 7.6887 16.1796 7.64178 16.3378 7.64178C16.4447 7.64468 16.55 7.66846 16.6478 7.71178C16.7918 7.77232 16.915 7.87371 17.0021 8.00344C17.0891 8.13316 17.1363 8.28555 17.1378 8.44178Z" fill="white"/>
<path d="M15.3478 18.7018H10.0878C9.0269 18.7018 8.00949 18.2803 7.25934 17.5302C6.5092 16.78 6.08777 15.7626 6.08777 14.7018V9.43176C6.08777 8.3709 6.5092 7.35348 7.25934 6.60334C8.00949 5.85319 9.0269 5.43176 10.0878 5.43176H15.3478C16.4086 5.43176 17.4261 5.85319 18.1762 6.60334C18.9263 7.35348 19.3478 8.3709 19.3478 9.43176V14.6918C19.3491 15.2179 19.2466 15.7391 19.0462 16.2256C18.8457 16.712 18.5513 17.1542 18.1797 17.5267C17.8082 17.8992 17.3668 18.1947 16.8808 18.3963C16.3949 18.598 15.8739 18.7018 15.3478 18.7018ZM10.0878 6.70176C9.36454 6.7044 8.67168 6.99287 8.16028 7.50427C7.64887 8.01568 7.3604 8.70853 7.35777 9.43176V14.6918C7.3604 15.415 7.64887 16.1079 8.16028 16.6193C8.67168 17.1307 9.36454 17.4191 10.0878 17.4218H15.3478C16.071 17.4191 16.7639 17.1307 17.2753 16.6193C17.7867 16.1079 18.0751 15.415 18.0778 14.6918V9.43176C18.0751 8.70853 17.7867 8.01568 17.2753 7.50427C16.7639 6.99287 16.071 6.7044 15.3478 6.70176H10.0878Z" fill="white"/>
<defs>
<radialGradient id="paint0_radial_3_937" cx="0" cy="0" r="1" gradientUnits="userSpaceOnUse" gradientTransform="translate(12.7178 12.0618) scale(35.57)">
<stop offset="0.17" stop-color="#FFC900"/>
<stop offset="0.2" stop-color="#FFAD15"/>
<stop offset="0.3" stop-color="#FF5658"/>
<stop offset="0.34" stop-color="#FF3372"/>
<stop offset="0.43" stop-color="#EC2799"/>
<stop offset="0.49" stop-color="#DF20B3"/>
<stop offset="0.61" stop-color="#1820F1"/>
<stop offset="0.62" stop-color="#0020F9"/>
</radialGradient>
</defs>
</svg>
